<svg width="45" height="45" viewBox="0 0 45 45" fill="none" xmlns="http://www.w3.org/2000/svg">
<g clip-path="url(#clip0_41_1335)">
<mask id="mask0_41_1335" style="mask-type:luminance" maskUnits="userSpaceOnUse" x="0" y="0" width="45" height="45">
<path d="M22.4681 44.9362C34.8769 44.9362 44.9362 34.8769 44.9362 22.4681C44.9362 10.0593 34.8769 0 22.4681 0C10.0593 0 0 10.0593 0 22.4681C0 34.8769 10.0593 44.9362 22.4681 44.9362Z" fill="white"/>
</mask>
<g mask="url(#mask0_41_1335)">
<path d="M0 0L0.702128 1.93085L0 3.94947V5.96808L2.80851 10.7074L0 15.4468V18.2553L2.80851 22.4681L0 26.6809V29.4894L2.80851 34.2287L0 38.9681V44.9362L1.93085 44.234L3.94947 44.9362H5.96808L10.7074 42.1277L15.4468 44.9362H18.2553L22.4681 42.1277L26.6809 44.9362H29.4894L34.2287 42.1277L38.9681 44.9362H44.9362L44.234 43.0053L44.9362 40.9867V38.9681L42.1277 34.2287L44.9362 29.4894V26.6809L42.1277 22.4681L44.9362 18.2553V15.4468L42.1277 10.7074L44.9362 5.96808V0L43.0053 0.702128L40.9867 0H38.9681L34.2287 2.80851L29.4894 0H26.6809L22.4681 2.80851L18.2553 0H15.4468L10.7074 2.80851L5.96808 0H0Z" fill="#EEEEEE"/>
<path d="M29.4894 0V9.47872L38.9681 0H29.4894ZM44.9362 5.96808L35.4574 15.4468H44.9362V5.96808ZM0 15.4468H9.47872L0 5.96808V15.4468ZM5.96808 0L15.4468 9.47872V0H5.96808ZM15.4468 44.9362V35.4574L5.96808 44.9362H15.4468ZM0 38.9681L9.47872 29.4894H0V38.9681ZM44.9362 29.4894H35.4574L44.9362 38.9681V29.4894ZM38.9681 44.9362L29.4894 35.4574V44.9362H38.9681Z" fill="#0052B4"/>
<path d="M0 0V3.94947L11.4973 15.4468H15.4468L0 0ZM18.2553 0V18.2553H0V26.6809H18.2553V44.9362H26.6809V26.6809H44.9362V18.2553H26.6809V0H18.2553ZM40.9867 0L29.4894 11.4973V15.4468L44.9362 0H40.9867ZM15.4468 29.4894L0 44.9362H3.94947L15.4468 33.4388V29.4894ZM29.4894 29.4894L44.9362 44.9362V40.9867L33.4388 29.4894H29.4894Z" fill="#D80027"/>
</g>
</g>
<defs>
<clipPath id="clip0_41_1335">
<rect width="44.9362" height="44.9362" fill="white"/>
</clipPath>
</defs>
</svg>
