<svg width="194" height="49" viewBox="0 0 194 49" fill="none" xmlns="http://www.w3.org/2000/svg">
<path d="M12.1019 17.2073C11.4535 17.2073 10.8142 17.1173 10.1839 16.9372C9.55362 16.7391 8.97734 16.4419 8.45509 16.0458C8.02288 16.4059 7.53664 16.6941 6.99638 16.9102C6.45612 17.1083 5.87984 17.2073 5.26755 17.2073H0V12.6151H5.26755C5.39361 12.6151 5.48365 12.5791 5.53768 12.507C5.60971 12.417 5.60071 12.2999 5.51066 12.1559L2.24208 7.34755L5.9969 4.72728L10.9673 12.0748C11.2554 12.471 11.6336 12.6691 12.1019 12.6691H12.9122C13.2004 12.6691 13.3985 12.8852 13.5065 13.3174C13.6326 13.7316 13.6956 14.2809 13.6956 14.9652C13.6956 15.6496 13.6506 16.1988 13.5606 16.613C13.4705 17.0092 13.2724 17.2073 12.9663 17.2073H12.1019Z" fill="#1E2D48"/>
<path d="M12.876 17.2073C12.5519 17.2073 12.3448 17.0002 12.2547 16.586C12.1467 16.1538 12.0927 15.5865 12.0927 14.8842C12.0927 14.1999 12.1557 13.6506 12.2818 13.2364C12.3898 12.8042 12.5879 12.5881 12.876 12.5881H15.0371C15.2352 12.5881 15.3342 12.462 15.3342 12.2099V7.4556H19.9535V12.2909C19.9535 12.489 20.0525 12.5881 20.2506 12.5881H22.4117C22.6998 12.5881 22.8979 12.8042 23.0059 13.2364C23.132 13.6506 23.195 14.1999 23.195 14.8842C23.195 15.5865 23.141 16.1538 23.033 16.586C22.9429 17.0002 22.7358 17.2073 22.4117 17.2073H20.2236C19.2511 17.2073 18.3777 16.9732 17.6033 16.505C16.829 16.9732 15.9735 17.2073 15.0371 17.2073H12.876ZM13.8485 23.0151V19.5845H21.3852V23.0151H13.8485Z" fill="#1E2D48"/>
<path d="M22.423 12.6151H24.3139C24.1878 11.4805 24.2238 10.5171 24.4219 9.7247C24.638 8.91431 24.9802 8.24799 25.4484 7.72573C25.9166 7.20348 26.4839 6.8253 27.1502 6.59119C27.8166 6.33906 28.5369 6.213 29.3113 6.213H34.7409V11.3185H31.4723L31.3913 10.4H29.4193C28.735 10.4 28.3928 10.7872 28.3928 11.5616C28.3928 11.9218 28.4739 12.1919 28.636 12.372C28.816 12.5341 29.0412 12.6151 29.3113 12.6151H36.6588C36.947 12.6151 37.1451 12.8222 37.2531 13.2364C37.3792 13.6506 37.4422 14.1999 37.4422 14.8842C37.4422 15.5865 37.3882 16.1538 37.2801 16.586C37.1901 17.0002 36.983 17.2073 36.6588 17.2073H22.423C22.0988 17.2073 21.8917 17.0002 21.8017 16.586C21.6936 16.1538 21.6396 15.5865 21.6396 14.8842C21.6396 14.1999 21.7026 13.6506 21.8287 13.2364C21.9367 12.8042 22.1348 12.5971 22.423 12.6151Z" fill="#1E2D48"/>
<path d="M44.5296 6.75326C45.2319 6.75326 45.8982 6.88833 46.5285 7.15846C47.1768 7.42859 47.7351 7.79777 48.2033 8.266C48.6896 8.73422 49.0677 9.29249 49.3379 9.9408C49.626 10.5711 49.7701 11.2554 49.7701 11.9938C49.7701 12.7322 49.626 13.4165 49.3379 14.0468C49.0677 14.6771 48.6896 15.2264 48.2033 15.6946C47.7351 16.1628 47.1768 16.532 46.5285 16.8021C45.8982 17.0723 45.2319 17.2073 44.5296 17.2073C44.0073 17.2073 43.5121 17.1353 43.0438 16.9912C42.5756 16.8291 42.1344 16.622 41.7202 16.3699C41.324 16.622 40.9008 16.8291 40.4506 16.9912C40.0004 17.1353 39.5231 17.2073 39.0189 17.2073H36.6417C36.2996 17.2073 36.0835 17.0002 35.9934 16.586C35.8854 16.1538 35.8313 15.5865 35.8313 14.8842C35.8313 14.1999 35.8944 13.6506 36.0204 13.2364C36.1285 12.8042 36.3356 12.5881 36.6417 12.5881H39.0189C39.0909 12.5881 39.154 12.5611 39.208 12.507C39.28 12.453 39.316 12.39 39.316 12.318V11.2915H38.1004V6.75326H44.5296ZM45.3399 11.9398C45.3399 11.7417 45.2589 11.5616 45.0968 11.3995C44.9347 11.2374 44.7547 11.1654 44.5566 11.1834H43.7462V11.9398C43.7462 12.1739 43.8182 12.372 43.9623 12.5341C44.1244 12.6961 44.3225 12.7682 44.5566 12.7502C44.7547 12.7502 44.9257 12.6781 45.0698 12.5341C45.2319 12.372 45.3219 12.1739 45.3399 11.9398Z" fill="#1E2D48"/>
<path d="M70.7806 8.10392C71.1768 8.41006 71.5189 8.6892 71.8071 8.94132C72.0952 9.17543 72.3293 9.43656 72.5094 9.7247C72.7075 10.0128 72.8516 10.355 72.9416 10.7512C73.0316 11.1294 73.0767 11.6066 73.0767 12.1829C73.0767 12.327 73.1217 12.435 73.2117 12.507C73.3198 12.5611 73.4188 12.5881 73.5089 12.5881H74.5894C74.8955 12.5881 75.1026 12.8042 75.2107 13.2364C75.3368 13.6506 75.3998 14.1999 75.3998 14.8842C75.3998 15.5865 75.3458 16.1538 75.2377 16.586C75.1477 17.0002 74.9316 17.2073 74.5894 17.2073H73.1847C72.7885 17.2073 72.3563 17.1623 71.8881 17.0723C71.4199 16.9642 71.0327 16.7841 70.7265 16.532C69.9702 16.9822 69.1508 17.2073 68.2683 17.2073H60.2725C59.4621 17.2073 58.6967 17.0542 57.9764 16.7481C57.274 16.4419 56.6617 16.0277 56.1395 15.5055C55.6172 14.9832 55.203 14.3619 54.8969 13.6416C54.5907 12.9212 54.4376 12.1559 54.4376 11.3455V7.4556H59.0029V11.3455C59.0029 11.6876 59.1289 11.9848 59.381 12.2369C59.6332 12.489 59.9303 12.6151 60.2725 12.6151H68.1063C68.1963 12.6151 68.2953 12.5971 68.4034 12.5611C68.5115 12.507 68.5655 12.408 68.5655 12.2639C68.5655 12.1018 68.5295 11.9848 68.4574 11.9128C68.3854 11.8407 68.2413 11.7237 68.0252 11.5616L62.7847 7.67171V5.15949L61.299 3.7278L65.0268 0L66.4855 1.48572L67.8361 0.162078L70.6995 2.8904L67.8091 5.88885C68.1873 6.17699 68.5565 6.44712 68.9166 6.69924C69.2228 6.93335 69.547 7.17647 69.8891 7.42859C70.2313 7.68071 70.5284 7.90582 70.7806 8.10392Z" fill="#1E2D48"/>
<path d="M74.5972 17.2073C74.273 17.2073 74.0659 17.0002 73.9759 16.586C73.8679 16.1538 73.8138 15.5865 73.8138 14.8842C73.8138 14.1999 73.8769 13.6506 74.0029 13.2364C74.111 12.8042 74.3091 12.5881 74.5972 12.5881H75.6777C75.8758 12.5881 75.9749 12.462 75.9749 12.2099V7.4556H80.5941V12.2909C80.5941 12.489 80.6932 12.5881 80.8912 12.5881H81.9718C82.2599 12.5881 82.458 12.8042 82.5661 13.2364C82.6921 13.6506 82.7551 14.1999 82.7551 14.8842C82.7551 15.5865 82.7011 16.1538 82.5931 16.586C82.503 17.0002 82.2959 17.2073 81.9718 17.2073H80.8642C79.8918 17.2073 79.0183 16.9732 78.244 16.505C77.4696 16.9732 76.6142 17.2073 75.6777 17.2073H74.5972ZM76.5151 2.24208H79.9188V5.64573H76.5151V2.24208Z" fill="#1E2D48"/>
<path d="M85.7496 12.5881C85.9477 12.5881 86.0467 12.462 86.0467 12.2099V7.4556H90.666V12.2909C90.666 12.9573 90.5309 13.5966 90.2608 14.2089C90.0086 14.8032 89.6575 15.3254 89.2073 15.7756C88.775 16.2078 88.2618 16.559 87.6675 16.8291C87.0732 17.0813 86.4339 17.2073 85.7496 17.2073H81.9678C81.6436 17.2073 81.4365 17.0002 81.3465 16.586C81.2384 16.1538 81.1844 15.5865 81.1844 14.8842C81.1844 14.1999 81.2474 13.6506 81.3735 13.2364C81.4815 12.8042 81.6796 12.5881 81.9678 12.5881H85.7496ZM81.9678 23.0151V19.5845H88.9641V23.0151H81.9678Z" fill="#1E2D48"/>
<path d="M104.118 17.2073C103.469 17.2073 102.83 17.1173 102.2 16.9372C101.569 16.7391 100.993 16.4419 100.471 16.0458C100.039 16.4059 99.5525 16.6941 99.0123 16.9102C98.472 17.1083 97.8957 17.2073 97.2834 17.2073H92.0159V12.6151H97.2834C97.4095 12.6151 97.4995 12.5791 97.5536 12.507C97.6256 12.417 97.6166 12.2999 97.5265 12.1559L94.258 7.34755L98.0128 4.72728L102.983 12.0748C103.271 12.471 103.65 12.6691 104.118 12.6691H104.928C105.216 12.6691 105.414 12.8852 105.522 13.3174C105.648 13.7316 105.712 14.2809 105.712 14.9652C105.712 15.6496 105.666 16.1988 105.576 16.613C105.486 17.0092 105.288 17.2073 104.982 17.2073H104.118Z" fill="#1E2D48"/>
<path d="M104.892 17.2073C104.568 17.2073 104.361 17.0002 104.271 16.586C104.163 16.1538 104.109 15.5865 104.109 14.8842C104.109 14.1999 104.172 13.6506 104.298 13.2364C104.406 12.8042 104.604 12.5881 104.892 12.5881H105.972C106.171 12.5881 106.27 12.462 106.27 12.2099V2.35014H110.889V12.2909C110.889 12.489 110.988 12.5881 111.186 12.5881H112.266C112.555 12.5881 112.753 12.8042 112.861 13.2364C112.987 13.6506 113.05 14.1999 113.05 14.8842C113.05 15.5865 112.996 16.1538 112.888 16.586C112.798 17.0002 112.591 17.2073 112.266 17.2073H111.159C110.186 17.2073 109.313 16.9732 108.539 16.505C107.764 16.9732 106.909 17.2073 105.972 17.2073H104.892Z" fill="#1E2D48"/>
<path d="M124.932 6.78028C125.634 6.78028 126.3 6.91534 126.931 7.18547C127.561 7.4556 128.11 7.82478 128.578 8.29301C129.065 8.76123 129.443 9.3105 129.713 9.9408C129.983 10.5711 130.118 11.2554 130.118 11.9938C130.118 12.7141 129.983 13.3895 129.713 14.0198C129.443 14.6501 129.065 15.1993 128.578 15.6676C128.11 16.1358 127.561 16.514 126.931 16.8021C126.3 17.0723 125.634 17.2073 124.932 17.2073H112.262C111.938 17.2073 111.731 17.0002 111.641 16.586C111.533 16.1538 111.479 15.5865 111.479 14.8842C111.479 14.1999 111.542 13.6506 111.668 13.2364C111.776 12.8042 111.974 12.5881 112.262 12.5881H114.478C114.478 12.1018 114.496 11.6876 114.532 11.3455C114.568 11.0033 114.676 10.5981 114.856 10.1299C114.315 9.58963 113.757 8.91431 113.181 8.10392L116.098 5.3756C116.621 5.84382 117.044 6.19499 117.368 6.42911C117.692 6.64521 117.917 6.76227 118.043 6.78028H124.932ZM119.826 12.6151C120.06 12.6151 120.258 12.5431 120.42 12.399C120.583 12.2369 120.664 12.0388 120.664 11.8047C120.664 11.6066 120.583 11.4265 120.42 11.2644C120.258 11.1024 120.06 11.0213 119.826 11.0213C119.628 11.0213 119.448 11.1024 119.286 11.2644C119.142 11.4265 119.07 11.6066 119.07 11.8047C119.07 12.0388 119.142 12.2369 119.286 12.399C119.448 12.5431 119.628 12.6151 119.826 12.6151ZM124.716 12.6151C124.914 12.6151 125.085 12.5431 125.229 12.399C125.391 12.2549 125.472 12.0748 125.472 11.8587C125.472 11.6246 125.391 11.4355 125.229 11.2915C125.085 11.1294 124.914 11.0393 124.716 11.0213H124.202V12.6151H124.716Z" fill="#1E2D48"/>
<g opacity="0.5">
<path d="M0 45.851V34.8772H1.0311L5.15549 40.8576H4.58102L8.69067 34.8772H9.72177V45.851H8.54338V36.468L8.92635 36.6153L4.89035 42.4631H4.83143L0.810148 36.6153L1.1784 36.468V45.851H0Z" fill="#1E2D48"/>
<path d="M19.8993 46.0278C19.1529 46.0278 18.4754 45.851 17.8665 45.4975C17.2577 45.1342 16.7716 44.6432 16.4083 44.0245C16.0547 43.396 15.878 42.6841 15.878 41.8887C15.878 41.1031 16.0547 40.4009 16.4083 39.7823C16.7618 39.1636 17.238 38.6775 17.8371 38.324C18.4459 37.9607 19.1333 37.779 19.8993 37.779C20.6652 37.779 21.3477 37.9558 21.9467 38.3093C22.5556 38.6628 23.0318 39.1489 23.3755 39.7675C23.729 40.3862 23.9058 41.0932 23.9058 41.8887C23.9058 42.6939 23.7241 43.4108 23.3608 44.0392C22.9975 44.6579 22.5114 45.144 21.9025 45.4975C21.3035 45.851 20.6357 46.0278 19.8993 46.0278ZM19.8993 44.923C20.4295 44.923 20.9058 44.7905 21.3281 44.5253C21.7601 44.2602 22.0989 43.8968 22.3444 43.4353C22.5997 42.9738 22.7274 42.4582 22.7274 41.8887C22.7274 41.3191 22.5997 40.8085 22.3444 40.3567C22.0989 39.905 21.7601 39.5466 21.3281 39.2815C20.9058 39.0163 20.4295 38.8837 19.8993 38.8837C19.369 38.8837 18.8878 39.0163 18.4557 39.2815C18.0335 39.5466 17.6947 39.905 17.4393 40.3567C17.184 40.8085 17.0564 41.3191 17.0564 41.8887C17.0564 42.4582 17.184 42.9738 17.4393 43.4353C17.6947 43.8968 18.0335 44.2602 18.4557 44.5253C18.8878 44.7905 19.369 44.923 19.8993 44.923Z" fill="#1E2D48"/>
<path d="M33.499 46.0278C32.7625 46.0278 32.0948 45.851 31.4958 45.4975C30.9066 45.1342 30.4401 44.6383 30.0964 44.0098C29.7527 43.3813 29.5809 42.6693 29.5809 41.8739C29.5809 41.0785 29.7478 40.3764 30.0817 39.7675C30.4156 39.1489 30.8673 38.6628 31.4368 38.3093C32.0162 37.9558 32.6643 37.779 33.3812 37.779C33.9507 37.779 34.4565 37.887 34.8984 38.1031C35.3501 38.3093 35.7331 38.5941 36.0473 38.9574C36.3615 39.3109 36.6021 39.7135 36.7691 40.1653C36.936 40.6072 37.0195 41.0638 37.0195 41.5351C37.0195 41.6333 37.0146 41.7463 37.0048 41.8739C36.9949 41.9918 36.9802 42.1145 36.9606 42.2422H30.2879V41.2111H36.3272L35.7969 41.653C35.8853 41.1129 35.8215 40.6317 35.6054 40.2094C35.3992 39.7774 35.0997 39.4386 34.7069 39.1931C34.3141 38.9378 33.8722 38.8101 33.3812 38.8101C32.8902 38.8101 32.4336 38.9378 32.0113 39.1931C31.5989 39.4484 31.2748 39.8068 31.0391 40.2684C30.8034 40.7201 30.7102 41.2602 30.7593 41.8887C30.7102 42.5171 30.8084 43.0671 31.0539 43.5384C31.3092 44 31.6529 44.3584 32.085 44.6137C32.5269 44.869 32.9982 44.9967 33.499 44.9967C34.0784 44.9967 34.5645 44.8592 34.9573 44.5842C35.3501 44.3093 35.6692 43.9656 35.9147 43.5531L36.8575 44.054C36.7003 44.4075 36.4598 44.7365 36.1357 45.0409C35.8116 45.3355 35.4237 45.5761 34.972 45.7626C34.5301 45.9394 34.0391 46.0278 33.499 46.0278Z" fill="#1E2D48"/>
<path d="M43.018 45.851V37.9558H44.1228V45.851H43.018ZM43.018 36.4975V34.8772H44.1228V36.4975H43.018Z" fill="#1E2D48"/>
<path d="M53.9994 46.0278C53.2629 46.0278 52.6001 45.851 52.0109 45.4975C51.4217 45.1342 50.9553 44.6432 50.6116 44.0245C50.2777 43.396 50.1107 42.689 50.1107 41.9034C50.1107 41.108 50.2777 40.4009 50.6116 39.7823C50.9553 39.1636 51.4168 38.6775 51.9962 38.324C52.5854 37.9607 53.2531 37.779 53.9994 37.779C54.677 37.779 55.281 37.9263 55.8112 38.2209C56.3415 38.5155 56.7589 38.9132 57.0633 39.414L56.8865 39.7234V34.7004H57.9913V45.851H56.8865V44.0834L57.0633 44.2455C56.7883 44.815 56.3759 45.2569 55.826 45.5711C55.2859 45.8756 54.677 46.0278 53.9994 46.0278ZM54.0584 44.923C54.5886 44.923 55.0649 44.7905 55.4872 44.5253C55.9193 44.2602 56.258 43.9018 56.5035 43.45C56.7589 42.9885 56.8865 42.4729 56.8865 41.9034C56.8865 41.3338 56.7589 40.8232 56.5035 40.3715C56.258 39.9099 55.9193 39.5466 55.4872 39.2815C55.0649 39.0163 54.5886 38.8837 54.0584 38.8837C53.5379 38.8837 53.0665 39.0163 52.6443 39.2815C52.222 39.5466 51.8881 39.905 51.6427 40.3567C51.407 40.8085 51.2891 41.324 51.2891 41.9034C51.2891 42.4729 51.407 42.9885 51.6427 43.45C51.8881 43.9018 52.2171 44.2602 52.6296 44.5253C53.0518 44.7905 53.5281 44.923 54.0584 44.923Z" fill="#1E2D48"/>
<path d="M76.0342 46.0278C75.2584 46.0278 74.5465 45.8903 73.8984 45.6153C73.2502 45.3306 72.6856 44.9378 72.2044 44.4369C71.733 43.9263 71.3648 43.3273 71.0997 42.6399C70.8345 41.9525 70.702 41.1964 70.702 40.3715C70.702 39.5466 70.8345 38.7905 71.0997 38.1031C71.3648 37.4157 71.733 36.8166 72.2044 36.306C72.6856 35.7954 73.2502 35.4026 73.8984 35.1276C74.5465 34.8428 75.2584 34.7004 76.0342 34.7004C76.7805 34.7004 77.4483 34.833 78.0375 35.0981C78.6365 35.3633 79.1373 35.707 79.5399 36.1292C79.9524 36.5417 80.247 36.9787 80.4237 37.4402L79.3632 37.9558C79.0882 37.288 78.6659 36.7626 78.0964 36.3797C77.5268 35.9967 76.8394 35.8052 76.0342 35.8052C75.229 35.8052 74.5121 35.9967 73.8836 36.3797C73.2551 36.7626 72.7641 37.2978 72.4106 37.9852C72.0571 38.6628 71.8803 39.4582 71.8803 40.3715C71.8803 41.2749 72.0571 42.0703 72.4106 42.7577C72.7641 43.4451 73.2551 43.9803 73.8836 44.3633C74.5121 44.7365 75.229 44.923 76.0342 44.923C76.7511 44.923 77.3943 44.7659 77.9638 44.4517C78.5432 44.1374 78.9998 43.7103 79.3337 43.1702C79.6676 42.6202 79.8345 41.9918 79.8345 41.2847V40.6808L80.3648 41.2111H76.0342V40.18H81.0129V41.0932C81.0129 41.8101 80.8853 42.4729 80.6299 43.0818C80.3746 43.6808 80.0211 44.2013 79.5694 44.6432C79.1177 45.0851 78.5874 45.4288 77.9785 45.6743C77.3795 45.9099 76.7314 46.0278 76.0342 46.0278Z" fill="#1E2D48"/>
<path d="M87.0123 45.851V37.9558H88.117V39.252L87.9697 39.0605C88.1563 38.6873 88.4362 38.3927 88.8093 38.1767C89.1923 37.9607 89.6538 37.8527 90.1939 37.8527H90.6948V38.9574H90.0024C89.4329 38.9574 88.9763 39.1342 88.6326 39.4877C88.2889 39.8412 88.117 40.342 88.117 40.9901V45.851H87.0123Z" fill="#1E2D48"/>
<path d="M99.7373 46.0278C98.991 46.0278 98.3134 45.851 97.7046 45.4975C97.0958 45.1342 96.6097 44.6432 96.2463 44.0245C95.8928 43.396 95.7161 42.6841 95.7161 41.8887C95.7161 41.1031 95.8928 40.4009 96.2463 39.7823C96.5999 39.1636 97.0761 38.6775 97.6751 38.324C98.284 37.9607 98.9714 37.779 99.7373 37.779C100.503 37.779 101.186 37.9558 101.785 38.3093C102.394 38.6628 102.87 39.1489 103.214 39.7675C103.567 40.3862 103.744 41.0932 103.744 41.8887C103.744 42.6939 103.562 43.4108 103.199 44.0392C102.836 44.6579 102.349 45.144 101.741 45.4975C101.142 45.851 100.474 46.0278 99.7373 46.0278ZM99.7373 44.923C100.268 44.923 100.744 44.7905 101.166 44.5253C101.598 44.2602 101.937 43.8968 102.183 43.4353C102.438 42.9738 102.565 42.4582 102.565 41.8887C102.565 41.3191 102.438 40.8085 102.183 40.3567C101.937 39.905 101.598 39.5466 101.166 39.2815C100.744 39.0163 100.268 38.8837 99.7373 38.8837C99.2071 38.8837 98.7259 39.0163 98.2938 39.2815C97.8715 39.5466 97.5328 39.905 97.2774 40.3567C97.0221 40.8085 96.8945 41.3191 96.8945 41.8887C96.8945 42.4582 97.0221 42.9738 97.2774 43.4353C97.5328 43.8968 97.8715 44.2602 98.2938 44.5253C98.7259 44.7905 99.2071 44.923 99.7373 44.923Z" fill="#1E2D48"/>
<path d="M112.542 46.0278C111.992 46.0278 111.491 45.9001 111.039 45.6448C110.588 45.3797 110.229 45.0163 109.964 44.5548C109.709 44.0834 109.581 43.5433 109.581 42.9345V37.9558H110.686V42.8019C110.686 43.2242 110.769 43.5973 110.936 43.9214C111.113 44.2356 111.353 44.4811 111.658 44.6579C111.972 44.8347 112.331 44.923 112.733 44.923C113.136 44.923 113.494 44.8347 113.808 44.6579C114.123 44.4713 114.368 44.2111 114.545 43.8772C114.722 43.5335 114.81 43.126 114.81 42.6546V37.9558H115.915V45.851H114.81V44.3191L115.061 44.378C114.874 44.8887 114.555 45.2913 114.103 45.5859C113.651 45.8805 113.131 46.0278 112.542 46.0278Z" fill="#1E2D48"/>
<path d="M122.238 48.797V37.9558H123.342V39.7234L123.166 39.414C123.48 38.9132 123.897 38.5155 124.418 38.2209C124.948 37.9263 125.552 37.779 126.229 37.779C126.976 37.779 127.639 37.9607 128.218 38.324C128.807 38.6775 129.269 39.1636 129.603 39.7823C129.946 40.4009 130.118 41.108 130.118 41.9034C130.118 42.689 129.946 43.396 129.603 44.0245C129.269 44.6432 128.807 45.1342 128.218 45.4975C127.639 45.851 126.976 46.0278 126.229 46.0278C125.552 46.0278 124.938 45.8756 124.388 45.5711C123.848 45.2569 123.441 44.815 123.166 44.2455L123.342 44.0834V48.797H122.238ZM126.17 44.923C126.701 44.923 127.172 44.7905 127.585 44.5253C128.007 44.2602 128.336 43.9018 128.571 43.45C128.817 42.9885 128.94 42.4729 128.94 41.9034C128.94 41.324 128.817 40.8085 128.571 40.3567C128.336 39.905 128.007 39.5466 127.585 39.2815C127.172 39.0163 126.701 38.8837 126.17 38.8837C125.64 38.8837 125.159 39.0163 124.727 39.2815C124.305 39.5466 123.966 39.9099 123.711 40.3715C123.465 40.8232 123.342 41.3338 123.342 41.9034C123.342 42.4729 123.465 42.9885 123.711 43.45C123.966 43.9018 124.305 44.2602 124.727 44.5253C125.159 44.7905 125.64 44.923 126.17 44.923Z" fill="#1E2D48"/>
</g>
<path d="M183.584 7.31859L173.78 12.9782L173.669 8.85604L173.558 4.73389L160.077 12.5326L146.597 20.3089L146.53 33.4775L146.485 46.6461H150.05H153.615L153.66 35.6389L153.727 24.6093L160.144 28.3304L166.539 32.0292V39.3377V46.6461H170.104H173.669L173.714 31.2716L173.78 15.8971L180.198 19.5959L186.592 23.2947V34.9704V46.6461H190.158H193.723V24.1414C193.723 11.7527 193.656 1.63671 193.567 1.63671C193.455 1.63671 188.977 4.19912 183.584 7.31859ZM171.441 29.3777V44.1951H170.104H168.767V37.4214V30.6477L163.642 27.6842L158.517 24.7207V23.2501V21.7795L164.712 18.1921C168.099 16.2091 171.017 14.5825 171.173 14.5825C171.374 14.5602 171.441 17.6574 171.441 29.3777Z" fill="#D1AF89"/>
</svg>
