<svg width="45" height="45" viewBox="0 0 45 45" fill="none" xmlns="http://www.w3.org/2000/svg">
<path d="M22.4681 1.46808C13.2702 1.46808 5.47662 7.29574 2.5979 15.5106H42.3383C39.4596 7.29574 31.666 1.46808 22.4681 1.46808Z" fill="#83BF4F"/>
<path d="M22.4681 43.5958C31.666 43.5958 39.4596 37.7681 42.3383 29.5532H2.5979C5.47662 37.7681 13.2702 43.5958 22.4681 43.5958Z" fill="#ED4C5C"/>
<path d="M2.59791 15.5106C1.82557 17.6872 1.4043 20.0744 1.4043 22.5319C1.4043 24.9893 1.82557 27.3766 2.59791 29.5532H42.3383C43.1107 27.3766 43.532 24.9893 43.532 22.5319C43.532 20.0744 43.1107 17.6872 42.3383 15.5106H2.59791Z" fill="#F9F9F9"/>
<path d="M41.7065 31.168L41.4958 31.5893H41.7065V31.168ZM3.4405 31.5893L3.22986 31.168V31.5893H3.4405ZM3.93199 13.2638H3.58092C3.51071 13.334 3.4405 13.4042 3.4405 13.4744H3.93199V13.2638Z" fill="white"/>
<path d="M3.93193 14.8085V14.5979H3.2298V14.1766H4.28299V14.8085H5.82768V13.1936H5.61704V14.5276H5.19576V13.1936H4.98512V14.5276H4.56385V13.1936H4.35321V13.8957H3.2298C3.15959 14.0362 3.08938 14.2468 3.01917 14.3872V14.8085H3.93193ZM3.93193 31.5893H3.44044C3.44044 31.6596 3.51065 31.7298 3.58087 31.8H4.00214L3.93193 31.5893ZM3.2298 31.1681H4.28299V31.8H5.82768V30.1851H5.61704V31.5191H5.19576V30.1851H4.98512V31.5191H4.56385V30.1851H4.35321V30.8872H3.15959C3.15959 31.0276 3.2298 31.0979 3.2298 31.1681Z" fill="white"/>
<path d="M3.93198 30.2553H2.87878C2.87878 30.3255 2.949 30.3957 2.949 30.4659H3.93198V30.2553ZM9.549 14.8085H10.532V14.5979H9.82985V14.1766H10.883V14.8085H12.4277V13.1936H12.2171V14.5979H11.7958V13.1936H11.515V14.5979H11.0937V13.1936H10.883V13.8957H9.549V14.8085ZM9.12772 14.8085V13.8957H8.21495V14.1766H8.91708V14.5979H7.86389V13.8957H6.31921V14.8787H6.52985V14.1766H7.58304V14.8085H9.12772Z" fill="white"/>
<path d="M6.88094 14.5978H7.232V14.8085H6.88094V14.5978ZM6.24902 13.2638H10.532V13.4744H6.24902V13.2638ZM8.21498 31.168H8.91711V31.5893H7.86392V30.8872H6.31924V31.8702H6.52987V31.168H7.58307V31.8H9.12775V30.8872H8.21498V31.168Z" fill="white"/>
<path d="M6.88094 31.5894H7.232V31.8H6.88094V31.5894ZM6.24902 30.2553H10.532V30.4659H6.24902V30.2553Z" fill="white"/>
<path d="M12.217 31.5893H11.7958V30.1851H11.5149V31.5893H11.0936V30.1851H10.883V30.8872H9.54895V31.8H10.5319V31.5893H9.8298V31.1681H10.883V31.8H12.4277V30.1851H12.217V31.5893ZM16.1489 14.8085H17.0617V14.5979H16.3596V14.1766H17.4128V14.8085H18.9575V13.1936H18.7468V14.5979H18.3255V13.1936H18.1149V14.5979H17.6936V13.1936H17.4128V13.8957H16.1489V14.8085ZM15.7277 14.8085V13.8957H14.7447V14.1766H15.4468V14.5979H14.3936V13.8957H12.8489V14.8787H13.0596V14.1766H14.183V14.8085H15.7277Z" fill="white"/>
<path d="M12.7787 13.2638H17.0617V13.4744H12.7787V13.2638ZM13.4808 14.5978H13.8319V14.8085H13.4808V14.5978ZM18.7468 31.5893H18.3255V30.1851H18.1149V31.5893H17.6936V30.1851H17.4127V30.8872H16.1489V31.8H17.0617V31.5893H16.3595V31.168H17.4127V31.8H18.9574V30.1851H18.7468V31.5893ZM13.4808 31.5893H13.8319V31.8H13.4808V31.5893Z" fill="white"/>
<path d="M12.7787 30.2553H17.0617V30.4659H12.7787V30.2553ZM14.7446 31.168H15.4468V31.5893H14.3936V30.8872H12.8489V31.8702H13.0595V31.168H14.1829V31.8H15.7276V30.8872H14.7446V31.168ZM22.2574 14.8085V13.8957H21.3446V14.1766H22.0468V14.5978H20.9234V13.8957H19.3787V14.8787H19.6595V14.1766H20.7127V14.8085H22.2574ZM19.3787 13.2638H23.6617V13.4744H19.3787V13.2638Z" fill="white"/>
<path d="M20.0107 14.5979H20.3618V14.8085H20.0107V14.5979ZM22.6788 14.8085H23.5915V14.5979H22.8894V14.1766H24.0128V14.8085H25.5575V13.1936H25.2767V14.5979H24.8554V13.1936H24.6447V14.5979H24.2235V13.1936H24.0128V13.8957H22.6788V14.8085ZM19.3788 30.2553H23.6618V30.4659H19.3788V30.2553ZM21.3447 31.1681H22.0469V31.5893H20.9235V30.8872H19.3788V31.8702H19.6596V31.1681H20.7128V31.8H22.2575V30.8872H21.3447V31.1681Z" fill="white"/>
<path d="M20.0107 31.5893H20.3618V31.8H20.0107V31.5893ZM25.2767 31.5893H24.8554V30.1851H24.6448V31.5893H24.2235V30.1851H24.0129V30.8872H22.6788V31.8H23.5916V31.5893H22.8895V31.168H24.0129V31.8H25.5576V30.1851H25.2767V31.5893ZM26.5405 14.5978H26.8916V14.8085H26.5405V14.5978ZM25.9086 13.2638H30.1916V13.4744H25.9086V13.2638Z" fill="white"/>
<path d="M29.2086 14.8085H30.1915V14.5979H29.4894V14.1766H30.5426V14.8085H32.0873V13.1936H31.8767V14.5979H31.4554V13.1936H31.1745V14.5979H30.7532V13.1936H30.5426V13.8957H29.2086V14.8085ZM28.7873 14.8085V13.8957H27.8745V14.1766H28.5767V14.5979H27.5235V13.8957H25.9788V14.8787H26.1894V14.1766H27.2426V14.8085H28.7873ZM25.9086 30.2553H30.1915V30.4659H25.9086V30.2553Z" fill="white"/>
<path d="M31.8766 31.5894H31.4554V30.1851H31.1745V31.5894H30.7532V30.1851H30.5426V30.8872H29.2085V31.8H30.1915V31.5894H29.4894V31.1681H30.5426V31.8H32.0873V30.1851H31.8766V31.5894ZM27.8745 31.1681H28.5766V31.5894H27.5234V30.8872H25.9788V31.8702H26.1894V31.1681H27.2426V31.8H28.7873V30.8872H27.8745V31.1681Z" fill="white"/>
<path d="M26.5404 31.5894H26.8915V31.8H26.5404V31.5894ZM35.3872 14.8085V13.8958H34.4042V14.1766H35.1064V14.5979H34.0532V13.8958H32.5085V14.8787H32.7191V14.1766H33.8425V14.8085H35.3872Z" fill="white"/>
<path d="M33.1405 14.5978H33.4915V14.8085H33.1405V14.5978ZM32.4384 13.2638H36.7213V13.4744H32.4384V13.2638Z" fill="white"/>
<path d="M35.8086 14.8085H36.7214V14.5979H36.0192V14.1766H37.0724V14.8085H38.6171V13.1936H38.4065V14.5979H37.9852V13.1936H37.7745V14.5979H37.3533V13.1936H37.0724V13.8957H35.8086V14.8085ZM33.1405 31.5893H33.4916V31.8H33.1405V31.5893Z" fill="white"/>
<path d="M34.4043 31.1681H35.1064V31.5894H34.0532V30.8872H32.5086V31.8702H32.7192V31.1681H33.8426V31.8H35.3873V30.8872H34.4043V31.1681ZM32.4384 30.2553H36.7213V30.4659H32.4384V30.2553Z" fill="white"/>
<path d="M38.4065 31.5893H37.9852V30.1851H37.7746V31.5893H37.3533V30.1851H37.0724V30.8872H35.8086V31.8H36.7214V31.5893H36.0192V31.168H37.0724V31.8H38.6171V30.1851H38.4065V31.5893ZM39.0384 13.4744H41.4958C41.4256 13.4042 41.4256 13.334 41.3554 13.2638H38.9682C39.0384 13.2638 39.0384 13.4744 39.0384 13.4744ZM41.0043 14.1766H41.7065V14.5978H40.6533V13.9659H39.1086V14.8787H39.3192V14.1766H40.3724V14.8085H41.9171V14.4574C41.8469 14.317 41.7767 14.1063 41.7065 13.9659H41.0043V14.1766Z" fill="white"/>
<path d="M39.6702 14.5979H40.0213V14.8085H39.6702V14.5979ZM39.6702 31.5894H40.0213V31.8H39.6702V31.5894ZM39.0383 30.2553V30.466H41.9873C41.9873 30.3958 42.0575 30.3256 42.0575 30.2553H39.0383ZM41.0043 31.1681H41.7064C41.7766 31.0979 41.7766 31.0277 41.8468 30.8873H41.0043V31.1681Z" fill="white"/>
<path d="M40.583 31.5894V30.9575H39.0383V31.8702H39.3192V31.1681H40.3724V31.8H41.3554C41.4256 31.7298 41.4256 31.6596 41.4958 31.5894H40.583Z" fill="white"/>
<path d="M25.6278 23.866C26.2597 22.0404 25.6278 20.0043 24.2235 18.7404C25.8384 21.1277 25.2065 24.2873 22.9597 25.9724L23.1001 22.0404V18.9511C22.8193 18.8107 22.6086 18.6702 22.4682 18.4596C22.3278 18.6702 22.1171 18.8809 21.8363 18.9511V22.0404L21.9767 25.9724C19.6597 24.2873 19.098 21.1277 20.7129 18.7404C19.2384 20.0043 18.6767 22.0404 19.3086 23.866C19.7299 25.1298 20.5725 26.0426 21.6256 26.6043C20.9937 26.8149 20.2916 26.9553 19.5895 26.9553C20.432 27.2362 21.2746 27.2362 22.0469 27.0958V27.2362L22.4682 27.7979L22.8895 27.2362V27.0958C23.6618 27.2362 24.5044 27.2362 25.3469 26.9553C24.6448 26.9553 23.9427 26.8851 23.3108 26.6043C24.3639 26.0426 25.2065 25.0596 25.6278 23.866Z" fill="#ED4C5C"/>
<path d="M27.1724 20.4957C26.6107 19.583 25.698 18.8808 24.6448 18.6C26.9618 20.3553 27.4533 23.6553 25.698 25.9723C27.6639 24.9191 28.2958 22.4617 27.1724 20.4957ZM20.2214 18.6C19.1682 18.8808 18.2554 19.5128 17.6937 20.4957C16.5703 22.3915 17.2724 24.8489 19.1682 25.9723C17.4831 23.6553 17.9043 20.3553 20.2214 18.6ZM21.415 18.3191C21.766 18.5298 22.2575 18.4596 22.4682 18.1085C22.6788 18.4596 23.1703 18.5298 23.5214 18.3191C23.8022 18.1085 23.9426 17.7574 23.8022 17.4064C23.732 17.8276 23.3809 18.0383 22.9597 17.9681C22.749 17.8979 22.6086 17.8276 22.4682 17.617C22.398 17.8276 22.1873 17.8979 21.9767 17.9681C21.5554 18.0383 21.2043 17.7574 21.1341 17.4064C20.9937 17.7574 21.1341 18.1085 21.415 18.3191Z" fill="#ED4C5C"/>
</svg>
