<svg width="49" height="51" viewBox="0 0 49 51" fill="none" xmlns="http://www.w3.org/2000/svg">
<g filter="url(#filter0_b_9_567)">
<rect x="49" y="51" width="49" height="51" rx="20" transform="rotate(180 49 51)" fill="#1E2D48"/>
</g>
<path d="M30.4571 23.9876L19.5001 30.7383C19.2547 30.8887 18.9406 30.8743 18.7108 30.6967C17.6698 29.8951 16.7398 29.0823 16.1193 28.399C16.1193 28.399 15.5847 27.8518 15.3534 27.5046C14.9798 27.031 14.8 26.4117 14.8 25.8101C14.8 25.1349 14.997 24.4964 15.3893 23.986C15.4784 23.8948 15.8176 23.4932 16.138 23.1652C18.0074 21.1235 22.8873 17.7505 25.4538 16.728C25.8274 16.5632 26.8246 16.2192 27.342 16.2C27.8406 16.2 28.322 16.3088 28.7847 16.5472C29.3536 16.8752 29.7991 17.3841 30.0492 17.9873C30.2102 18.4065 30.4587 19.6642 30.4587 19.701C30.6197 20.5986 30.74 21.8595 30.7994 23.3316C30.8104 23.5956 30.6775 23.8516 30.4571 23.9876Z" fill="white"/>
<path opacity="0.4" d="M29.724 27.6235C30.207 27.3243 30.815 27.7067 30.7916 28.2812C30.7337 29.6284 30.6337 30.8157 30.5118 31.6989C30.493 31.7181 30.2445 33.2846 29.9585 33.8142C29.4599 34.7983 28.4814 35.3999 27.4295 35.3999L27.3419 35.3999C26.6636 35.3823 25.2209 34.7807 25.2209 34.7439C24.4941 34.4415 23.5453 33.9294 22.5246 33.3134C22.0651 33.035 22.0541 32.3518 22.5137 32.0685L29.724 27.6235Z" fill="white"/>
<defs>
<filter id="filter0_b_9_567" x="-19" y="-19" width="87" height="89" filterUnits="userSpaceOnUse" color-interpolation-filters="sRGB">
<feFlood flood-opacity="0" result="BackgroundImageFix"/>
<feGaussianBlur in="BackgroundImageFix" stdDeviation="9.5"/>
<feComposite in2="SourceAlpha" operator="in" result="effect1_backgroundBlur_9_567"/>
<feBlend mode="normal" in="SourceGraphic" in2="effect1_backgroundBlur_9_567" result="shape"/>
</filter>
</defs>
</svg>
