<svg width="21" height="21" viewBox="0 0 21 21" fill="none" xmlns="http://www.w3.org/2000/svg">
<g opacity="0.5">
<path opacity="0.4" d="M18.7523 6.26769C18.3994 6.0454 17.9657 6.02574 17.596 6.21383L16.3479 6.84394C15.8864 7.0765 15.6001 7.54673 15.6001 8.06998V12.9826C15.6001 13.5059 15.8864 13.9753 16.3479 14.2095L17.5952 14.8388C17.7644 14.926 17.9455 14.9679 18.1266 14.9679C18.3438 14.9679 18.5594 14.9063 18.7523 14.7858C19.1052 14.5643 19.3157 14.1805 19.3157 13.7598V7.29452C19.3157 6.87387 19.1052 6.48999 18.7523 6.26769Z" fill="#1E2D48"/>
<path d="M10.8142 16.8429H5.93644C3.89674 16.8429 2.47266 15.4365 2.47266 13.423V7.63058C2.47266 5.61627 3.89674 4.21069 5.93644 4.21069H10.8142C12.8539 4.21069 14.278 5.61627 14.278 7.63058V13.423C14.278 15.4365 12.8539 16.8429 10.8142 16.8429Z" fill="#1E2D48"/>
</g>
</svg>
