<svg width="20" height="20" viewBox="0 0 20 20" fill="none" xmlns="http://www.w3.org/2000/svg">
<path opacity="0.4" d="M15.6752 7.51746C15.2989 7.51746 14.8006 7.50913 14.1801 7.50913C12.6668 7.50913 11.4225 6.25663 11.4225 4.72913V2.04913C11.4225 1.83829 11.2541 1.66663 11.0454 1.66663H6.63754C4.58048 1.66663 2.91785 3.35496 2.91785 5.42413V14.4033C2.91785 16.5741 4.6597 18.3333 6.80916 18.3333H13.3731C15.4227 18.3333 17.0845 16.6558 17.0845 14.585V7.89246C17.0845 7.68079 16.917 7.50996 16.7074 7.51079C16.3551 7.51329 15.9326 7.51746 15.6752 7.51746Z" fill="#D1AF89"/>
<path opacity="0.4" d="M13.4046 2.13935C13.1555 1.88019 12.7205 2.05852 12.7205 2.41769V4.61519C12.7205 5.53685 13.4796 6.29519 14.4013 6.29519C14.9821 6.30185 15.7888 6.30352 16.4738 6.30185C16.8246 6.30102 17.003 5.88185 16.7596 5.62852C15.8805 4.71435 14.3063 3.07602 13.4046 2.13935Z" fill="#D1AF89"/>
<path d="M12.0165 12.4106C12.359 12.4106 12.6373 12.6889 12.6373 13.0314C12.6373 13.3739 12.359 13.6514 12.0165 13.6514H7.47982C7.13732 13.6514 6.85982 13.3739 6.85982 13.0314C6.85982 12.6889 7.13732 12.4106 7.47982 12.4106H12.0165ZM10.3006 8.24878C10.6431 8.24878 10.9214 8.52711 10.9214 8.86961C10.9214 9.21211 10.6431 9.48961 10.3006 9.48961H7.47974C7.13724 9.48961 6.85974 9.21211 6.85974 8.86961C6.85974 8.52711 7.13724 8.24878 7.47974 8.24878H10.3006Z" fill="#D1AF89"/>
</svg>
