<svg width="21" height="21" viewBox="0 0 21 21" fill="none" xmlns="http://www.w3.org/2000/svg">
<g opacity="0.5">
<path opacity="0.4" d="M17.5596 17.1807H12.498C12.0042 17.1807 11.6025 17.5887 11.6025 18.0903C11.6025 18.5929 12.0042 19 12.498 19H17.5596C18.0534 19 18.4551 18.5929 18.4551 18.0903C18.4551 17.5887 18.0534 17.1807 17.5596 17.1807Z" fill="#1E2D48"/>
<path d="M8.95199 6.47011L13.7483 10.3458C13.864 10.4384 13.8838 10.6085 13.7935 10.727L8.10729 18.1362C7.74985 18.5939 7.22309 18.8529 6.65871 18.8624L3.5546 18.9007C3.38905 18.9026 3.24419 18.7879 3.20656 18.6235L2.50108 15.5563C2.3788 14.9925 2.50108 14.4096 2.85853 13.9605L8.57291 6.51598C8.66509 6.39654 8.83535 6.37551 8.95199 6.47011Z" fill="#1E2D48"/>
<path opacity="0.4" d="M15.8958 8.03595L14.9711 9.19024C14.878 9.30777 14.7106 9.32688 14.5949 9.23324C13.4708 8.32357 10.5924 5.9892 9.79383 5.34231C9.67719 5.24675 9.6612 5.07667 9.75527 4.95818L10.647 3.85072C11.4559 2.80919 12.8669 2.71363 14.0051 3.62139L15.3126 4.66292C15.8487 5.08336 16.2062 5.63757 16.3285 6.22044C16.4696 6.8616 16.319 7.4913 15.8958 8.03595Z" fill="#1E2D48"/>
</g>
</svg>
