<svg width="21" height="20" viewBox="0 0 21 20" fill="none" xmlns="http://www.w3.org/2000/svg">
<path opacity="0.4" d="M10.3261 15.5179L4.91629 18.2201C4.50775 18.4419 3.99815 18.2938 3.76965 17.887C3.70292 17.759 3.66763 17.6169 3.66675 17.4724V11.424C3.66675 12.0237 4.00486 12.3938 4.89424 12.8084L10.3261 15.5179Z" fill="#D1AF89"/>
<path d="M12.8913 1.66669C15.1478 1.66669 16.978 2.55506 17.0001 4.82783V17.4724C16.9992 17.6145 16.9639 17.7543 16.8972 17.8796C16.79 18.0839 16.605 18.2356 16.3846 18.2998C16.1642 18.364 15.9274 18.3353 15.7285 18.2201L10.3261 15.518L4.89424 12.8084C4.00486 12.3938 3.66675 12.0237 3.66675 11.424V4.82783C3.66675 2.55506 5.49696 1.66669 7.74613 1.66669H12.8913ZM13.4573 6.70082H7.18751C6.82622 6.70082 6.53334 6.99581 6.53334 7.3597C6.53334 7.72359 6.82622 8.01858 7.18751 8.01858H13.4573C13.8186 8.01858 14.1114 7.72359 14.1114 7.3597C14.1114 6.99581 13.8186 6.70082 13.4573 6.70082Z" fill="#D1AF89"/>
</svg>
