<svg width="62" height="59" viewBox="0 0 62 59" fill="none" xmlns="http://www.w3.org/2000/svg">
<path d="M48.3841 7.41017L35.5979 14.7913L35.4526 9.41528L35.3073 4.03927L17.7263 14.2101L0.145297 24.3519L0.058119 41.526L0 58.7002H4.64952H9.29904L9.35716 44.3448L9.44434 29.9603L17.8135 34.8133L26.1535 39.6372V49.1687V58.7002H30.8031H35.4526L35.5107 38.6491L35.5979 18.5981L43.967 23.422L52.3071 28.2458V43.473V58.7002H56.9566H61.6061V29.3501C61.6061 13.193 61.519 0 61.4027 0C61.2574 0 55.4165 3.34184 48.3841 7.41017ZM32.5466 36.1791V55.5036H30.8031H29.0595V46.6696V37.8355L22.3758 33.9706L15.6921 30.1056V28.1877V26.2698L23.7707 21.5912C28.1877 19.0049 31.9945 16.8836 32.1979 16.8836C32.4595 16.8545 32.5466 20.8938 32.5466 36.1791Z" fill="#1E2D48"/>
</svg>
