<svg width="436" height="394" viewBox="0 0 436 394" fill="none" xmlns="http://www.w3.org/2000/svg">
<g opacity="0.1">
<path d="M737.103 26.494C735.503 219.392 564.566 393.276 372.858 393C181.151 392.723 -43.3869 219.392 8.61348 26.494C60.6138 -166.404 181.151 -323.631 372.858 -340.012C564.566 -356.392 738.703 -166.404 737.103 26.494Z" stroke="#1E2D48" stroke-width="0.858057" stroke-linecap="round"/>
<path d="M714.673 19.9713C713.405 194.887 558.22 352.531 384.383 352.311C210.546 352.092 12.8836 194.887 54.0929 19.9713C95.3022 -154.944 210.546 -299.387 384.383 -312.369C558.22 -325.35 715.94 -154.944 714.673 19.9713Z" stroke="#1E2D48" stroke-width="0.858057" stroke-linecap="round"/>
<path d="M686.479 16.7104C685.387 173.644 546.11 315.073 390.145 314.884C234.179 314.696 58.3141 173.644 93.8098 16.7104C129.306 -140.223 234.179 -270.282 390.145 -281.464C546.11 -292.645 687.572 -140.223 686.479 16.7104Z" stroke="#1E2D48" stroke-width="0.858057" stroke-linecap="round"/>
<path d="M655.982 14.7534C655.001 153.705 531.697 278.931 393.602 278.762C255.507 278.592 99.3385 153.705 131.222 14.7534C163.106 -124.198 255.507 -239.211 393.602 -249.255C531.697 -259.299 656.963 -124.198 655.982 14.7534Z" stroke="#1E2D48" stroke-width="0.858057" stroke-linecap="round"/>
<path d="M624.331 13.449C623.428 134.419 516.13 243.448 395.907 243.291C275.683 243.135 138.124 134.419 167.482 13.449C196.84 -107.521 275.683 -207.146 395.907 -216.394C516.13 -225.642 625.235 -107.521 624.331 13.449Z" stroke="#1E2D48" stroke-width="0.858057" stroke-linecap="round"/>
<path d="M592.023 12.517C591.178 115.505 499.906 208.34 397.553 208.194C295.201 208.048 175.611 115.505 203.084 12.517C230.557 -90.4708 295.201 -174.506 397.553 -183.16C499.906 -191.814 592.868 -90.4708 592.023 12.517Z" stroke="#1E2D48" stroke-width="0.858057" stroke-linecap="round"/>
<path d="M559.303 11.8182C558.503 96.8239 483.27 173.468 398.788 173.329C314.307 173.191 212.273 96.8239 238.274 11.8182C264.274 -73.1876 314.307 -141.503 398.788 -149.693C483.27 -157.883 560.103 -73.1876 559.303 11.8182Z" stroke="#1E2D48" stroke-width="0.858057" stroke-linecap="round"/>
<path d="M526.307 11.2747C525.544 78.2985 466.358 138.752 399.748 138.62C333.137 138.488 248.378 78.2985 273.188 11.2747C297.999 -55.7491 333.137 -108.255 399.748 -116.07C466.358 -123.886 527.071 -55.7491 526.307 11.2747Z" stroke="#1E2D48" stroke-width="0.858057" stroke-linecap="round"/>
<path d="M493.121 10.8399C492.388 59.8817 449.255 104.146 400.516 104.019C351.777 103.893 284.087 59.8817 307.912 10.8399C331.736 -38.2019 351.777 -74.8347 400.516 -82.3395C449.255 -89.8444 493.854 -38.2019 493.121 10.8399Z" stroke="#1E2D48" stroke-width="0.858057" stroke-linecap="round"/>
<path d="M459.795 10.4839C459.088 41.5437 432.014 69.6199 401.145 69.4975C370.277 69.3752 319.506 41.5437 342.496 10.4839C365.486 -20.5759 370.277 -41.2876 401.145 -48.5297C432.014 -55.7718 460.502 -20.5759 459.795 10.4839Z" stroke="#1E2D48" stroke-width="0.858057" stroke-linecap="round"/>
</g>
</svg>
