<svg width="136" height="135" viewBox="0 0 136 135" fill="none" xmlns="http://www.w3.org/2000/svg">
<path d="M12.5565 101.854C11.8838 101.854 11.2205 101.76 10.5665 101.573C9.9125 101.368 9.31458 101.06 8.7727 100.649C8.32426 101.022 7.81976 101.321 7.2592 101.545C6.69865 101.751 6.10072 101.854 5.46542 101.854H0V97.089H5.46542C5.59622 97.089 5.68964 97.0516 5.7457 96.9769C5.82044 96.8834 5.8111 96.762 5.71767 96.6125L2.32631 91.6236L6.22217 88.9049L11.3793 96.5284C11.6783 96.9395 12.0706 97.145 12.5565 97.145H13.3973C13.6963 97.145 13.9018 97.3693 14.0139 97.8177C14.1447 98.2475 14.2101 98.8174 14.2101 99.5274C14.2101 100.237 14.1634 100.807 14.07 101.237C13.9765 101.648 13.771 101.854 13.4533 101.854H12.5565Z" fill="#1E2D48"/>
<path d="M13.3597 101.854C13.0234 101.854 12.8085 101.639 12.7151 101.209C12.603 100.761 12.5469 100.172 12.5469 99.4433C12.5469 98.7333 12.6123 98.1634 12.7431 97.7336C12.8552 97.2852 13.0608 97.061 13.3597 97.061H15.602C15.8075 97.061 15.9103 96.9302 15.9103 96.6686V91.7357H20.703V96.7527C20.703 96.9582 20.8058 97.061 21.0113 97.061H23.2536C23.5525 97.061 23.7581 97.2852 23.8702 97.7336C24.001 98.1634 24.0664 98.7333 24.0664 99.4433C24.0664 100.172 24.0103 100.761 23.8982 101.209C23.8048 101.639 23.5899 101.854 23.2536 101.854H20.9833C19.9743 101.854 19.0681 101.611 18.2646 101.125C17.4611 101.611 16.5736 101.854 15.602 101.854H13.3597ZM14.3687 107.88V104.32H22.1885V107.88H14.3687Z" fill="#1E2D48"/>
<path d="M23.2653 97.089H25.2272C25.0964 95.9118 25.1338 94.9122 25.3393 94.09C25.5636 93.2492 25.9186 92.5578 26.4044 92.016C26.8902 91.4741 27.4788 91.0817 28.1701 90.8388C28.8615 90.5772 29.6089 90.4464 30.4124 90.4464H36.046V95.7437H32.6546L32.5705 94.7907H30.5245C29.8144 94.7907 29.4594 95.1924 29.4594 95.9959C29.4594 96.3696 29.5435 96.6499 29.7117 96.8367C29.8985 97.0049 30.1321 97.089 30.4124 97.089H38.0359C38.3349 97.089 38.5404 97.3039 38.6525 97.7336C38.7833 98.1634 38.8487 98.7333 38.8487 99.4433C38.8487 100.172 38.7927 100.761 38.6806 101.209C38.5871 101.639 38.3723 101.854 38.0359 101.854H23.2653C22.9289 101.854 22.7141 101.639 22.6206 101.209C22.5085 100.761 22.4525 100.172 22.4525 99.4433C22.4525 98.7333 22.5179 98.1634 22.6487 97.7336C22.7608 97.2852 22.9663 97.0703 23.2653 97.089Z" fill="#1E2D48"/>
<path d="M46.2023 91.007C46.931 91.007 47.6224 91.1471 48.2764 91.4274C48.949 91.7076 49.5283 92.0907 50.0141 92.5765C50.5186 93.0623 50.911 93.6416 51.1913 94.3142C51.4902 94.9682 51.6397 95.6783 51.6397 96.4443C51.6397 97.2104 51.4902 97.9205 51.1913 98.5745C50.911 99.2284 50.5186 99.7983 50.0141 100.284C49.5283 100.77 48.949 101.153 48.2764 101.433C47.6224 101.714 46.931 101.854 46.2023 101.854C45.6604 101.854 45.1466 101.779 44.6608 101.629C44.175 101.461 43.7172 101.246 43.2874 100.985C42.8763 101.246 42.4372 101.461 41.9701 101.629C41.503 101.779 41.0078 101.854 40.4846 101.854H38.0182C37.6632 101.854 37.4389 101.639 37.3455 101.209C37.2334 100.761 37.1774 100.172 37.1774 99.4433C37.1774 98.7333 37.2428 98.1634 37.3736 97.7336C37.4857 97.2852 37.7005 97.061 38.0182 97.061H40.4846C40.5594 97.061 40.6248 97.0329 40.6808 96.9769C40.7556 96.9208 40.7929 96.8554 40.7929 96.7807V95.7156H39.5317V91.007H46.2023ZM47.0431 96.3883C47.0431 96.1828 46.9591 95.9959 46.7909 95.8277C46.6227 95.6596 46.4359 95.5848 46.2303 95.6035H45.3895V96.3883C45.3895 96.6312 45.4642 96.8367 45.6137 97.0049C45.7819 97.1731 45.9874 97.2478 46.2303 97.2291C46.4359 97.2291 46.6134 97.1544 46.7629 97.0049C46.931 96.8367 47.0245 96.6312 47.0431 96.3883Z" fill="#1E2D48"/>
<path d="M73.4394 92.4083C73.8505 92.726 74.2055 93.0156 74.5045 93.2772C74.8035 93.5201 75.0464 93.791 75.2332 94.09C75.4387 94.389 75.5882 94.744 75.6817 95.1551C75.7751 95.5475 75.8218 96.0426 75.8218 96.6405C75.8218 96.79 75.8685 96.9021 75.9619 96.9769C76.074 97.0329 76.1768 97.061 76.2702 97.061H77.3913C77.709 97.061 77.9239 97.2852 78.036 97.7336C78.1668 98.1634 78.2322 98.7333 78.2322 99.4433C78.2322 100.172 78.1761 100.761 78.064 101.209C77.9706 101.639 77.7464 101.854 77.3913 101.854H75.9339C75.5228 101.854 75.0744 101.807 74.5886 101.714C74.1027 101.601 73.701 101.415 73.3834 101.153C72.5986 101.62 71.7484 101.854 70.8328 101.854H62.5366C61.6958 101.854 60.9017 101.695 60.1542 101.377C59.4255 101.06 58.7902 100.63 58.2484 100.088C57.7065 99.5461 57.2767 98.9015 56.9591 98.154C56.6414 97.4066 56.4826 96.6125 56.4826 95.7717V91.7357H61.2193V95.7717C61.2193 96.1267 61.3501 96.435 61.6117 96.6966C61.8733 96.9582 62.1816 97.089 62.5366 97.089H70.6647C70.7581 97.089 70.8609 97.0703 70.973 97.0329C71.0851 96.9769 71.1411 96.8741 71.1411 96.7246C71.1411 96.5565 71.1038 96.435 71.029 96.3603C70.9543 96.2855 70.8048 96.1641 70.5806 95.9959L65.1432 91.9599V89.3533L63.6017 87.8678L67.4695 84L68.983 85.5415L70.3844 84.1682L73.3553 86.999L70.3564 90.1101C70.7488 90.409 71.1318 90.6893 71.5055 90.9509C71.8232 91.1938 72.1595 91.4461 72.5145 91.7076C72.8695 91.9692 73.1778 92.2028 73.4394 92.4083Z" fill="#1E2D48"/>
<path d="M77.3994 101.854C77.0631 101.854 76.8482 101.639 76.7548 101.209C76.6427 100.761 76.5866 100.172 76.5866 99.4433C76.5866 98.7333 76.652 98.1634 76.7828 97.7336C76.8949 97.2852 77.1005 97.061 77.3994 97.061H78.5206C78.7261 97.061 78.8289 96.9302 78.8289 96.6686V91.7357H83.6216V96.7527C83.6216 96.9582 83.7244 97.061 83.9299 97.061H85.051C85.35 97.061 85.5555 97.2852 85.6677 97.7336C85.7985 98.1634 85.8638 98.7333 85.8638 99.4433C85.8638 100.172 85.8078 100.761 85.6957 101.209C85.6023 101.639 85.3874 101.854 85.051 101.854H83.9019C82.8929 101.854 81.9867 101.611 81.1832 101.125C80.3797 101.611 79.4922 101.854 78.5206 101.854H77.3994ZM79.3894 86.3263H82.9209V89.8578H79.3894V86.3263Z" fill="#1E2D48"/>
<path d="M88.9708 97.061C89.1763 97.061 89.2791 96.9302 89.2791 96.6686V91.7357H94.0718V96.7527C94.0718 97.444 93.9317 98.1073 93.6514 98.7426C93.3898 99.3592 93.0255 99.9011 92.5583 100.368C92.1099 100.817 91.5774 101.181 90.9607 101.461C90.3441 101.723 89.6808 101.854 88.9708 101.854H85.0469C84.7105 101.854 84.4957 101.639 84.4022 101.209C84.2901 100.761 84.2341 100.172 84.2341 99.4433C84.2341 98.7333 84.2995 98.1634 84.4303 97.7336C84.5424 97.2852 84.7479 97.061 85.0469 97.061H88.9708ZM85.0469 107.88V104.32H92.3061V107.88H85.0469Z" fill="#1E2D48"/>
<path d="M108.029 101.854C107.356 101.854 106.693 101.76 106.039 101.573C105.385 101.368 104.787 101.06 104.245 100.649C103.797 101.022 103.292 101.321 102.732 101.545C102.171 101.751 101.573 101.854 100.938 101.854H95.4725V97.089H100.938C101.069 97.089 101.162 97.0516 101.218 96.9769C101.293 96.8834 101.284 96.762 101.19 96.6125L97.7988 91.6236L101.695 88.9049L106.852 96.5284C107.151 96.9395 107.543 97.145 108.029 97.145H108.87C109.169 97.145 109.374 97.3693 109.486 97.8177C109.617 98.2475 109.683 98.8174 109.683 99.5274C109.683 100.237 109.636 100.807 109.542 101.237C109.449 101.648 109.243 101.854 108.926 101.854H108.029Z" fill="#1E2D48"/>
<path d="M108.832 101.854C108.496 101.854 108.281 101.639 108.188 101.209C108.075 100.761 108.019 100.172 108.019 99.4433C108.019 98.7333 108.085 98.1634 108.216 97.7336C108.328 97.2852 108.533 97.061 108.832 97.061H109.953C110.159 97.061 110.262 96.9302 110.262 96.6686V86.4384H115.054V96.7527C115.054 96.9582 115.157 97.061 115.363 97.061H116.484C116.783 97.061 116.988 97.2852 117.1 97.7336C117.231 98.1634 117.297 98.7333 117.297 99.4433C117.297 100.172 117.241 100.761 117.128 101.209C117.035 101.639 116.82 101.854 116.484 101.854H115.335C114.326 101.854 113.419 101.611 112.616 101.125C111.812 101.611 110.925 101.854 109.953 101.854H108.832Z" fill="#1E2D48"/>
<path d="M129.625 91.035C130.353 91.035 131.045 91.1751 131.699 91.4554C132.353 91.7357 132.923 92.1187 133.408 92.6045C133.913 93.0904 134.305 93.6603 134.586 94.3142C134.866 94.9682 135.006 95.6783 135.006 96.4443C135.006 97.1918 134.866 97.8925 134.586 98.5464C134.305 99.2004 133.913 99.7703 133.408 100.256C132.923 100.742 132.353 101.134 131.699 101.433C131.045 101.714 130.353 101.854 129.625 101.854H116.48C116.143 101.854 115.928 101.639 115.835 101.209C115.723 100.761 115.667 100.172 115.667 99.4433C115.667 98.7333 115.732 98.1634 115.863 97.7336C115.975 97.2852 116.181 97.061 116.48 97.061H118.778C118.778 96.5565 118.797 96.1267 118.834 95.7717C118.871 95.4167 118.983 94.9962 119.17 94.5104C118.61 93.9499 118.03 93.2492 117.433 92.4083L120.46 89.5775C121.001 90.0633 121.441 90.4277 121.777 90.6706C122.113 90.8948 122.347 91.0163 122.478 91.035H129.625ZM124.327 97.089C124.57 97.089 124.776 97.0142 124.944 96.8648C125.112 96.6966 125.196 96.4911 125.196 96.2482C125.196 96.0426 125.112 95.8558 124.944 95.6876C124.776 95.5194 124.57 95.4353 124.327 95.4353C124.122 95.4353 123.935 95.5194 123.767 95.6876C123.617 95.8558 123.543 96.0426 123.543 96.2482C123.543 96.4911 123.617 96.6966 123.767 96.8648C123.935 97.0142 124.122 97.089 124.327 97.089ZM129.4 97.089C129.606 97.089 129.784 97.0142 129.933 96.8648C130.101 96.7153 130.185 96.5284 130.185 96.3042C130.185 96.0613 130.101 95.8651 129.933 95.7156C129.784 95.5475 129.606 95.454 129.4 95.4353H128.868V97.089H129.4Z" fill="#1E2D48"/>
<g opacity="0.5">
<path d="M0 131.573V120.187H1.06983L5.34915 126.392H4.7531L9.01714 120.187H10.087V131.573H8.86431V121.838L9.26167 121.991L5.07405 128.058H5.01292L0.840581 121.991L1.22266 121.838V131.573H0Z" fill="#1E2D48"/>
<path d="M20.6468 131.757C19.8724 131.757 19.1694 131.573 18.5377 131.207C17.906 130.83 17.4016 130.32 17.0246 129.678C16.6578 129.026 16.4744 128.288 16.4744 127.462C16.4744 126.647 16.6578 125.919 17.0246 125.277C17.3914 124.635 17.8856 124.13 18.5071 123.764C19.1388 123.387 19.852 123.198 20.6468 123.198C21.4415 123.198 22.1496 123.382 22.7711 123.748C23.4029 124.115 23.897 124.62 24.2536 125.261C24.6204 125.903 24.8038 126.637 24.8038 127.462C24.8038 128.298 24.6153 129.042 24.2383 129.694C23.8614 130.335 23.357 130.84 22.7253 131.207C22.1038 131.573 21.4109 131.757 20.6468 131.757ZM20.6468 130.611C21.197 130.611 21.6911 130.473 22.1292 130.198C22.5776 129.923 22.9291 129.546 23.1838 129.067C23.4487 128.588 23.5812 128.053 23.5812 127.462C23.5812 126.871 23.4487 126.341 23.1838 125.873C22.9291 125.404 22.5776 125.032 22.1292 124.757C21.6911 124.482 21.197 124.344 20.6468 124.344C20.0966 124.344 19.5973 124.482 19.149 124.757C18.7109 125.032 18.3594 125.404 18.0945 125.873C17.8295 126.341 17.6971 126.871 17.6971 127.462C17.6971 128.053 17.8295 128.588 18.0945 129.067C18.3594 129.546 18.7109 129.923 19.149 130.198C19.5973 130.473 20.0966 130.611 20.6468 130.611Z" fill="#1E2D48"/>
<path d="M34.7574 131.757C33.9933 131.757 33.3004 131.573 32.6789 131.207C32.0676 130.83 31.5836 130.315 31.227 129.663C30.8704 129.011 30.6921 128.272 30.6921 127.447C30.6921 126.622 30.8653 125.893 31.2117 125.261C31.5581 124.62 32.0268 124.115 32.6178 123.748C33.2189 123.382 33.8914 123.198 34.6352 123.198C35.2261 123.198 35.7508 123.31 36.2093 123.534C36.678 123.748 37.0754 124.044 37.4014 124.421C37.7275 124.788 37.9771 125.205 38.1503 125.674C38.3235 126.133 38.4101 126.606 38.4101 127.095C38.4101 127.197 38.405 127.314 38.3948 127.447C38.3847 127.569 38.3694 127.697 38.349 127.829H31.4257V126.759H37.6918L37.1416 127.218C37.2333 126.657 37.1671 126.158 36.9429 125.72C36.729 125.272 36.4182 124.92 36.0107 124.665C35.6031 124.4 35.1446 124.268 34.6352 124.268C34.1257 124.268 33.6519 124.4 33.2138 124.665C32.7859 124.93 32.4496 125.302 32.2051 125.781C31.9606 126.25 31.8638 126.81 31.9147 127.462C31.8638 128.114 31.9657 128.685 32.2204 129.174C32.4853 129.653 32.8419 130.025 33.2902 130.29C33.7487 130.555 34.2378 130.687 34.7574 130.687C35.3586 130.687 35.8629 130.544 36.2705 130.259C36.678 129.974 37.0092 129.617 37.2639 129.189L38.242 129.709C38.079 130.076 37.8294 130.417 37.4931 130.733C37.1569 131.039 36.7544 131.288 36.2858 131.482C35.8273 131.665 35.3178 131.757 34.7574 131.757Z" fill="#1E2D48"/>
<path d="M44.634 131.573V123.382H45.7803V131.573H44.634ZM44.634 121.869V120.187H45.7803V121.869H44.634Z" fill="#1E2D48"/>
<path d="M56.0279 131.757C55.2638 131.757 54.576 131.573 53.9647 131.207C53.3534 130.83 52.8694 130.32 52.5128 129.678C52.1664 129.026 51.9932 128.293 51.9932 127.478C51.9932 126.652 52.1664 125.919 52.5128 125.277C52.8694 124.635 53.3483 124.13 53.9494 123.764C54.5607 123.387 55.2536 123.198 56.0279 123.198C56.731 123.198 57.3576 123.351 57.9078 123.657C58.458 123.962 58.891 124.375 59.2069 124.895L59.0235 125.216V120.004H60.1697V131.573H59.0235V129.739L59.2069 129.908C58.9216 130.499 58.4936 130.957 57.9231 131.283C57.3627 131.599 56.731 131.757 56.0279 131.757ZM56.0891 130.611C56.6393 130.611 57.1334 130.473 57.5716 130.198C58.0199 129.923 58.3714 129.551 58.6261 129.082C58.891 128.603 59.0235 128.068 59.0235 127.478C59.0235 126.887 58.891 126.357 58.6261 125.888C58.3714 125.409 58.0199 125.032 57.5716 124.757C57.1334 124.482 56.6393 124.344 56.0891 124.344C55.5491 124.344 55.06 124.482 54.6219 124.757C54.1838 125.032 53.8373 125.404 53.5826 125.873C53.3381 126.341 53.2158 126.876 53.2158 127.478C53.2158 128.068 53.3381 128.603 53.5826 129.082C53.8373 129.551 54.1787 129.923 54.6066 130.198C55.0447 130.473 55.5389 130.611 56.0891 130.611Z" fill="#1E2D48"/>
<path d="M78.8904 131.757C78.0855 131.757 77.3468 131.614 76.6743 131.329C76.0019 131.033 75.416 130.626 74.9168 130.106C74.4277 129.576 74.0456 128.955 73.7705 128.242C73.4954 127.528 73.3579 126.744 73.3579 125.888C73.3579 125.032 73.4954 124.248 73.7705 123.534C74.0456 122.821 74.4277 122.2 74.9168 121.67C75.416 121.14 76.0019 120.732 76.6743 120.447C77.3468 120.152 78.0855 120.004 78.8904 120.004C79.6648 120.004 80.3576 120.142 80.9689 120.417C81.5905 120.692 82.1101 121.048 82.5278 121.486C82.9558 121.914 83.2614 122.368 83.4448 122.847L82.3445 123.382C82.0592 122.689 81.621 122.144 81.0301 121.746C80.4391 121.349 79.7259 121.15 78.8904 121.15C78.0549 121.15 77.3111 121.349 76.6591 121.746C76.007 122.144 75.4975 122.699 75.1307 123.412C74.7639 124.115 74.5805 124.94 74.5805 125.888C74.5805 126.825 74.7639 127.651 75.1307 128.364C75.4975 129.077 76.007 129.632 76.6591 130.03C77.3111 130.417 78.0549 130.611 78.8904 130.611C79.6342 130.611 80.3016 130.448 80.8925 130.122C81.4937 129.795 81.9675 129.352 82.3139 128.792C82.6603 128.221 82.8335 127.569 82.8335 126.836V126.209L83.3837 126.759H78.8904V125.689H84.0562V126.637C84.0562 127.381 83.9237 128.068 83.6588 128.7C83.3939 129.322 83.0271 129.862 82.5584 130.32C82.0897 130.779 81.5395 131.135 80.9078 131.39C80.2863 131.635 79.6138 131.757 78.8904 131.757Z" fill="#1E2D48"/>
<path d="M90.2809 131.573V123.382H91.4271V124.727L91.2743 124.528C91.4679 124.141 91.7583 123.835 92.1454 123.611C92.5428 123.387 93.0217 123.275 93.5821 123.275H94.1017V124.421H93.3834C92.7924 124.421 92.3187 124.604 91.9621 124.971C91.6054 125.338 91.4271 125.857 91.4271 126.53V131.573H90.2809Z" fill="#1E2D48"/>
<path d="M103.484 131.757C102.71 131.757 102.007 131.573 101.375 131.207C100.743 130.83 100.239 130.32 99.8618 129.678C99.495 129.026 99.3116 128.288 99.3116 127.462C99.3116 126.647 99.495 125.919 99.8618 125.277C100.229 124.635 100.723 124.13 101.344 123.764C101.976 123.387 102.689 123.198 103.484 123.198C104.279 123.198 104.987 123.382 105.608 123.748C106.24 124.115 106.734 124.62 107.091 125.261C107.458 125.903 107.641 126.637 107.641 127.462C107.641 128.298 107.453 129.042 107.076 129.694C106.699 130.335 106.194 130.84 105.563 131.207C104.941 131.573 104.248 131.757 103.484 131.757ZM103.484 130.611C104.034 130.611 104.528 130.473 104.966 130.198C105.415 129.923 105.766 129.546 106.021 129.067C106.286 128.588 106.418 128.053 106.418 127.462C106.418 126.871 106.286 126.341 106.021 125.873C105.766 125.404 105.415 125.032 104.966 124.757C104.528 124.482 104.034 124.344 103.484 124.344C102.934 124.344 102.435 124.482 101.986 124.757C101.548 125.032 101.197 125.404 100.932 125.873C100.667 126.341 100.534 126.871 100.534 127.462C100.534 128.053 100.667 128.588 100.932 129.067C101.197 129.546 101.548 129.923 101.986 130.198C102.435 130.473 102.934 130.611 103.484 130.611Z" fill="#1E2D48"/>
<path d="M116.769 131.757C116.199 131.757 115.679 131.624 115.21 131.359C114.742 131.084 114.37 130.707 114.095 130.229C113.83 129.739 113.697 129.179 113.697 128.547V123.382H114.844V128.41C114.844 128.848 114.93 129.235 115.103 129.571C115.287 129.897 115.536 130.152 115.852 130.335C116.178 130.519 116.55 130.611 116.968 130.611C117.386 130.611 117.758 130.519 118.084 130.335C118.41 130.142 118.664 129.872 118.848 129.525C119.031 129.169 119.123 128.746 119.123 128.257V123.382H120.269V131.573H119.123V129.984L119.383 130.045C119.189 130.575 118.858 130.993 118.389 131.298C117.921 131.604 117.381 131.757 116.769 131.757Z" fill="#1E2D48"/>
<path d="M126.829 134.63V123.382H127.976V125.216L127.792 124.895C128.118 124.375 128.551 123.962 129.091 123.657C129.642 123.351 130.268 123.198 130.971 123.198C131.746 123.198 132.433 123.387 133.034 123.764C133.646 124.13 134.125 124.635 134.471 125.277C134.828 125.919 135.006 126.652 135.006 127.478C135.006 128.293 134.828 129.026 134.471 129.678C134.125 130.32 133.646 130.83 133.034 131.207C132.433 131.573 131.746 131.757 130.971 131.757C130.268 131.757 129.631 131.599 129.061 131.283C128.5 130.957 128.078 130.499 127.792 129.908L127.976 129.739V134.63H126.829ZM130.91 130.611C131.46 130.611 131.949 130.473 132.377 130.198C132.815 129.923 133.157 129.551 133.401 129.082C133.656 128.603 133.783 128.068 133.783 127.478C133.783 126.876 133.656 126.341 133.401 125.873C133.157 125.404 132.815 125.032 132.377 124.757C131.949 124.482 131.46 124.344 130.91 124.344C130.36 124.344 129.861 124.482 129.412 124.757C128.974 125.032 128.623 125.409 128.358 125.888C128.103 126.357 127.976 126.887 127.976 127.478C127.976 128.068 128.103 128.603 128.358 129.082C128.623 129.551 128.974 129.923 129.412 130.198C129.861 130.473 130.36 130.611 130.91 130.611Z" fill="#1E2D48"/>
</g>
<path d="M120.481 6.59352L110.308 12.4657L110.193 8.18873L110.077 3.91173L96.0903 12.0033L82.1034 20.0718L82.034 33.7351L81.9878 47.3984H85.6868H89.3858L89.4321 35.9777L89.5014 24.5338L96.1597 28.3947L102.795 32.2324V39.8154V47.3984H106.494H110.193L110.239 31.4464L110.308 15.4943L116.967 19.332L123.602 23.1698V35.2841V47.3984H127.301H131V24.0483C131 11.1942 130.931 0.698204 130.838 0.698204C130.722 0.698204 126.076 3.35688 120.481 6.59352ZM107.881 29.4812V44.8553H106.494H105.107V37.8272V30.799L99.7894 27.7242L94.472 24.6494V23.1235V21.5977L100.899 17.8756C104.413 15.818 107.442 14.1303 107.604 14.1303C107.812 14.1072 107.881 17.3207 107.881 29.4812Z" fill="#1E2D48"/>
</svg>
