<svg width="42" height="115" viewBox="0 0 42 115" fill="none" xmlns="http://www.w3.org/2000/svg">
<g opacity="0.5">
<circle cx="2.7998" cy="2" r="2" fill="white"/>
<circle cx="2.7998" cy="20.3999" r="2" fill="white"/>
<circle cx="2.7998" cy="38.8" r="2" fill="white"/>
<circle cx="2.7998" cy="57.2" r="2" fill="white"/>
<circle cx="2.7998" cy="75.6001" r="2" fill="white"/>
<circle cx="2.7998" cy="94" r="2" fill="white"/>
<circle cx="2.7998" cy="112.4" r="2" fill="white"/>
<circle cx="21.1997" cy="2" r="2" fill="white"/>
<circle cx="21.1997" cy="20.3999" r="2" fill="white"/>
<circle cx="21.1997" cy="38.8" r="2" fill="white"/>
<circle cx="21.1997" cy="57.2" r="2" fill="white"/>
<circle cx="21.1997" cy="75.6001" r="2" fill="white"/>
<circle cx="21.1997" cy="94" r="2" fill="white"/>
<circle cx="21.1997" cy="112.4" r="2" fill="white"/>
<circle cx="39.5999" cy="2" r="2" fill="white"/>
<circle cx="39.5999" cy="20.3999" r="2" fill="white"/>
<circle cx="39.5999" cy="38.8" r="2" fill="white"/>
<circle cx="39.5999" cy="57.2" r="2" fill="white"/>
<circle cx="39.5999" cy="75.6001" r="2" fill="white"/>
<circle cx="39.5999" cy="94" r="2" fill="white"/>
<circle cx="39.5999" cy="112.4" r="2" fill="white"/>
</g>
</svg>
