<svg width="69" height="69" viewBox="0 0 69 69" fill="none" xmlns="http://www.w3.org/2000/svg">
<g filter="url(#filter0_b_7_410)">
<circle cx="34.5" cy="34.5" r="34.5" fill="white" fill-opacity="0.27"/>
</g>
<path d="M23.8493 37.0215L39.0918 27.6304C39.4332 27.4211 39.8703 27.4411 40.1899 27.6882C41.6381 28.8034 42.9318 29.9342 43.7951 30.8846C43.7951 30.8846 44.5387 31.6459 44.8605 32.1289C45.3802 32.7878 45.6303 33.6492 45.6303 34.4862C45.6303 35.4255 45.3563 36.3137 44.8105 37.0237C44.6866 37.1506 44.2147 37.7093 43.769 38.1656C41.1684 41.0059 34.3799 45.6981 30.8095 47.1205C30.2898 47.3498 28.9026 47.8283 28.1828 47.855C27.4892 47.855 26.8195 47.7037 26.1759 47.372C25.3844 46.9157 24.7647 46.2079 24.4168 45.3687C24.1928 44.7855 23.8471 43.0359 23.8471 42.9847C23.6231 41.736 23.4557 39.982 23.3731 37.9341C23.3578 37.5668 23.5427 37.2107 23.8493 37.0215Z" fill="white"/>
<path opacity="0.4" d="M24.8691 31.9631C24.1972 32.3794 23.3514 31.8474 23.384 31.0483C23.4644 29.1741 23.6036 27.5224 23.7732 26.2937C23.7993 26.267 24.145 24.0878 24.5429 23.3511C25.2366 21.9821 26.5977 21.1452 28.0611 21.1452L28.1829 21.1452C29.1266 21.1697 31.1335 22.0066 31.1335 22.0578C32.1446 22.4785 33.4645 23.1908 34.8844 24.0478C35.5237 24.4351 35.5389 25.3856 34.8996 25.7795L24.8691 31.9631Z" fill="white"/>
<defs>
<filter id="filter0_b_7_410" x="-6.67742" y="-6.67742" width="82.3548" height="82.3548" filterUnits="userSpaceOnUse" color-interpolation-filters="sRGB">
<feFlood flood-opacity="0" result="BackgroundImageFix"/>
<feGaussianBlur in="BackgroundImageFix" stdDeviation="3.33871"/>
<feComposite in2="SourceAlpha" operator="in" result="effect1_backgroundBlur_7_410"/>
<feBlend mode="normal" in="SourceGraphic" in2="effect1_backgroundBlur_7_410" result="shape"/>
</filter>
</defs>
</svg>
